<!-- Created with qrencode 4.1.1 (https://fukuchi.org/works/qrencode/index.html) -->
<svg width="6.46cm" height="6.46cm" viewBox="0 0 61 61" preserveAspectRatio="none" version="1.1" xmlns="http://www.w3.org/2000/svg">
	<g id="QRcode">
		<rect x="0" y="0" width="61" height="61" fill="#ffffff"/>
		<path style="stroke:#000000" transform="translate(0,0.5)" d="M0,0h1M1,0h1M2,0h1M3,0h1M4,0h1M5,0h1M6,0h1M8,0h1M10,0h1M11,0h1M12,0h1M15,0h1M17,0h1M18,0h1M23,0h1M25,0h1M27,0h1M29,0h1M30,0h1M33,0h1M34,0h1M37,0h1M38,0h1M39,0h1M40,0h1M41,0h1M42,0h1M43,0h1M44,0h1M49,0h1M51,0h1M52,0h1M54,0h1M55,0h1M56,0h1M57,0h1M58,0h1M59,0h1M60,0h1M0,1h1M6,1h1M8,1h1M9,1h1M11,1h1M14,1h1M16,1h1M17,1h1M18,1h1M20,1h1M21,1h1M22,1h1M23,1h1M26,1h1M27,1h1M29,1h1M30,1h1M31,1h1M33,1h1M38,1h1M39,1h1M41,1h1M43,1h1M44,1h1M51,1h1M52,1h1M54,1h1M60,1h1M0,2h1M2,2h1M3,2h1M4,2h1M6,2h1M10,2h1M11,2h1M12,2h1M14,2h1M16,2h1M18,2h1M21,2h1M24,2h1M26,2h1M28,2h1M31,2h1M32,2h1M34,2h1M35,2h1M37,2h1M43,2h1M44,2h1M47,2h1M48,2h1M50,2h1M51,2h1M52,2h1M54,2h1M56,2h1M57,2h1M58,2h1M60,2h1M0,3h1M2,3h1M3,3h1M4,3h1M6,3h1M8,3h1M9,3h1M10,3h1M11,3h1M13,3h1M17,3h1M22,3h1M23,3h1M26,3h1M29,3h1M30,3h1M31,3h1M32,3h1M35,3h1M37,3h1M39,3h1M40,3h1M41,3h1M42,3h1M44,3h1M45,3h1M46,3h1M47,3h1M49,3h1M50,3h1M52,3h1M54,3h1M56,3h1M57,3h1M58,3h1M60,3h1M0,4h1M2,4h1M3,4h1M4,4h1M6,4h1M10,4h1M14,4h1M15,4h1M18,4h1M23,4h1M25,4h1M27,4h1M28,4h1M29,4h1M30,4h1M31,4h1M32,4h1M35,4h1M36,4h1M38,4h1M39,4h1M40,4h1M41,4h1M43,4h1M45,4h1M46,4h1M47,4h1M48,4h1M49,4h1M50,4h1M51,4h1M54,4h1M56,4h1M57,4h1M58,4h1M60,4h1M0,5h1M6,5h1M10,5h1M11,5h1M12,5h1M13,5h1M17,5h1M18,5h1M19,5h1M20,5h1M22,5h1M27,5h1M28,5h1M32,5h1M33,5h1M34,5h1M35,5h1M40,5h1M41,5h1M43,5h1M45,5h1M46,5h1M47,5h1M49,5h1M50,5h1M54,5h1M60,5h1M0,6h1M1,6h1M2,6h1M3,6h1M4,6h1M5,6h1M6,6h1M8,6h1M10,6h1M12,6h1M14,6h1M16,6h1M18,6h1M20,6h1M22,6h1M24,6h1M26,6h1M28,6h1M30,6h1M32,6h1M34,6h1M36,6h1M38,6h1M40,6h1M42,6h1M44,6h1M46,6h1M48,6h1M50,6h1M52,6h1M54,6h1M55,6h1M56,6h1M57,6h1M58,6h1M59,6h1M60,6h1M8,7h1M11,7h1M15,7h1M17,7h1M18,7h1M19,7h1M20,7h1M21,7h1M23,7h1M24,7h1M28,7h1M32,7h1M33,7h1M35,7h1M37,7h1M38,7h1M39,7h1M41,7h1M42,7h1M43,7h1M44,7h1M45,7h1M48,7h1M50,7h1M51,7h1M0,8h1M2,8h1M3,8h1M5,8h1M6,8h1M7,8h1M10,8h1M11,8h1M12,8h1M17,8h1M18,8h1M19,8h1M21,8h1M22,8h1M23,8h1M26,8h1M27,8h1M28,8h1M29,8h1M30,8h1M31,8h1M32,8h1M35,8h1M38,8h1M41,8h1M42,8h1M44,8h1M46,8h1M49,8h1M51,8h1M52,8h1M54,8h1M57,8h1M59,8h1M60,8h1M2,9h1M4,9h1M8,9h1M16,9h1M18,9h1M20,9h1M23,9h1M25,9h1M30,9h1M31,9h1M33,9h1M35,9h1M36,9h1M38,9h1M41,9h1M45,9h1M47,9h1M50,9h1M52,9h1M53,9h1M56,9h1M57,9h1M59,9h1M60,9h1M0,10h1M6,10h1M8,10h1M10,10h1M11,10h1M14,10h1M15,10h1M17,10h1M18,10h1M19,10h1M20,10h1M22,10h1M25,10h1M26,10h1M27,10h1M28,10h1M30,10h1M31,10h1M33,10h1M39,10h1M42,10h1M43,10h1M44,10h1M46,10h1M51,10h1M52,10h1M55,10h1M56,10h1M59,10h1M60,10h1M1,11h1M3,11h1M5,11h1M7,11h1M8,11h1M11,11h1M12,11h1M13,11h1M15,11h1M16,11h1M17,11h1M19,11h1M20,11h1M22,11h1M23,11h1M24,11h1M25,11h1M26,11h1M28,11h1M30,11h1M31,11h1M32,11h1M33,11h1M34,11h1M39,11h1M40,11h1M41,11h1M43,11h1M45,11h1M46,11h1M47,11h1M48,11h1M52,11h1M53,11h1M56,11h1M60,11h1M1,12h1M3,12h1M4,12h1M6,12h1M10,12h1M11,12h1M13,12h1M16,12h1M17,12h1M18,12h1M20,12h1M25,12h1M26,12h1M28,12h1M31,12h1M33,12h1M35,12h1M37,12h1M39,12h1M40,12h1M42,12h1M45,12h1M46,12h1M50,12h1M55,12h1M57,12h1M58,12h1M59,12h1M60,12h1M3,13h1M5,13h1M7,13h1M9,13h1M12,13h1M14,13h1M15,13h1M16,13h1M18,13h1M20,13h1M24,13h1M26,13h1M27,13h1M31,13h1M32,13h1M33,13h1M35,13h1M36,13h1M38,13h1M40,13h1M41,13h1M44,13h1M45,13h1M46,13h1M51,13h1M52,13h1M53,13h1M57,13h1M59,13h1M60,13h1M0,14h1M1,14h1M2,14h1M5,14h1M6,14h1M9,14h1M10,14h1M11,14h1M13,14h1M15,14h1M16,14h1M21,14h1M22,14h1M23,14h1M24,14h1M27,14h1M28,14h1M29,14h1M30,14h1M31,14h1M32,14h1M33,14h1M34,14h1M35,14h1M37,14h1M39,14h1M40,14h1M41,14h1M43,14h1M46,14h1M47,14h1M48,14h1M53,14h1M56,14h1M60,14h1M1,15h1M2,15h1M3,15h1M8,15h1M9,15h1M12,15h1M13,15h1M16,15h1M17,15h1M18,15h1M25,15h1M26,15h1M28,15h1M32,15h1M36,15h1M39,15h1M41,15h1M42,15h1M47,15h1M49,15h1M53,15h1M54,15h1M57,15h1M58,15h1M59,15h1M0,16h1M1,16h1M2,16h1M5,16h1M6,16h1M7,16h1M8,16h1M11,16h1M13,16h1M14,16h1M16,16h1M17,16h1M18,16h1M20,16h1M22,16h1M23,16h1M24,16h1M25,16h1M26,16h1M28,16h1M29,16h1M30,16h1M31,16h1M32,16h1M34,16h1M36,16h1M39,16h1M40,16h1M41,16h1M42,16h1M43,16h1M46,16h1M47,16h1M51,16h1M52,16h1M55,16h1M57,16h1M58,16h1M59,16h1M0,17h1M1,17h1M2,17h1M4,17h1M9,17h1M10,17h1M14,17h1M16,17h1M18,17h1M19,17h1M21,17h1M22,17h1M27,17h1M28,17h1M31,17h1M33,17h1M36,17h1M38,17h1M42,17h1M43,17h1M44,17h1M45,17h1M47,17h1M49,17h1M53,17h1M55,17h1M56,17h1M57,17h1M58,17h1M59,17h1M60,17h1M1,18h1M2,18h1M5,18h1M6,18h1M7,18h1M8,18h1M9,18h1M10,18h1M15,18h1M16,18h1M18,18h1M19,18h1M20,18h1M21,18h1M24,18h1M25,18h1M26,18h1M27,18h1M28,18h1M31,18h1M35,18h1M37,18h1M38,18h1M40,18h1M42,18h1M43,18h1M44,18h1M47,18h1M48,18h1M49,18h1M51,18h1M54,18h1M55,18h1M59,18h1M1,19h1M2,19h1M3,19h1M5,19h1M7,19h1M10,19h1M15,19h1M16,19h1M18,19h1M19,19h1M22,19h1M24,19h1M30,19h1M31,19h1M32,19h1M33,19h1M35,19h1M37,19h1M38,19h1M39,19h1M40,19h1M44,19h1M45,19h1M49,19h1M50,19h1M51,19h1M55,19h1M57,19h1M60,19h1M2,20h1M4,20h1M5,20h1M6,20h1M8,20h1M9,20h1M10,20h1M12,20h1M13,20h1M16,20h1M17,20h1M18,20h1M20,20h1M22,20h1M26,20h1M27,20h1M29,20h1M30,20h1M35,20h1M37,20h1M38,20h1M39,20h1M41,20h1M42,20h1M46,20h1M47,20h1M49,20h1M51,20h1M52,20h1M54,20h1M55,20h1M56,20h1M57,20h1M59,20h1M0,21h1M1,21h1M2,21h1M3,21h1M4,21h1M7,21h1M9,21h1M11,21h1M12,21h1M13,21h1M15,21h1M17,21h1M18,21h1M19,21h1M20,21h1M21,21h1M22,21h1M23,21h1M24,21h1M30,21h1M31,21h1M34,21h1M38,21h1M39,21h1M40,21h1M42,21h1M43,21h1M44,21h1M45,21h1M46,21h1M49,21h1M50,21h1M51,21h1M54,21h1M55,21h1M56,21h1M59,21h1M60,21h1M0,22h1M1,22h1M2,22h1M3,22h1M5,22h1M6,22h1M8,22h1M9,22h1M12,22h1M13,22h1M14,22h1M17,22h1M18,22h1M19,22h1M21,22h1M22,22h1M24,22h1M26,22h1M31,22h1M32,22h1M34,22h1M37,22h1M38,22h1M41,22h1M43,22h1M44,22h1M45,22h1M50,22h1M56,22h1M60,22h1M0,23h1M1,23h1M3,23h1M4,23h1M5,23h1M7,23h1M8,23h1M9,23h1M13,23h1M16,23h1M18,23h1M19,23h1M20,23h1M24,23h1M26,23h1M27,23h1M32,23h1M33,23h1M35,23h1M38,23h1M39,23h1M41,23h1M42,23h1M43,23h1M45,23h1M46,23h1M47,23h1M48,23h1M49,23h1M52,23h1M53,23h1M55,23h1M57,23h1M60,23h1M6,24h1M9,24h1M10,24h1M14,24h1M21,24h1M22,24h1M24,24h1M26,24h1M27,24h1M28,24h1M29,24h1M30,24h1M31,24h1M33,24h1M34,24h1M36,24h1M38,24h1M39,24h1M43,24h1M44,24h1M46,24h1M48,24h1M53,24h1M55,24h1M56,24h1M60,24h1M1,25h1M3,25h1M5,25h1M7,25h1M12,25h1M15,25h1M17,25h1M21,25h1M24,25h1M25,25h1M27,25h1M28,25h1M31,25h1M32,25h1M33,25h1M34,25h1M35,25h1M36,25h1M37,25h1M39,25h1M40,25h1M42,25h1M44,25h1M45,25h1M46,25h1M47,25h1M48,25h1M57,25h1M1,26h1M2,26h1M3,26h1M6,26h1M7,26h1M8,26h1M9,26h1M11,26h1M13,26h1M14,26h1M16,26h1M17,26h1M18,26h1M21,26h1M24,26h1M27,26h1M30,26h1M31,26h1M34,26h1M35,26h1M37,26h1M39,26h1M40,26h1M45,26h1M47,26h1M49,26h1M50,26h1M59,26h1M60,26h1M1,27h1M3,27h1M4,27h1M7,27h1M8,27h1M11,27h1M13,27h1M14,27h1M15,27h1M16,27h1M17,27h1M18,27h1M20,27h1M22,27h1M23,27h1M26,27h1M28,27h1M29,27h1M31,27h1M37,27h1M39,27h1M42,27h1M43,27h1M45,27h1M46,27h1M47,27h1M48,27h1M53,27h1M54,27h1M55,27h1M58,27h1M0,28h1M2,28h1M3,28h1M4,28h1M5,28h1M6,28h1M7,28h1M8,28h1M9,28h1M11,28h1M14,28h1M15,28h1M16,28h1M17,28h1M18,28h1M19,28h1M20,28h1M21,28h1M25,28h1M26,28h1M28,28h1M29,28h1M30,28h1M31,28h1M32,28h1M34,28h1M36,28h1M39,28h1M41,28h1M43,28h1M44,28h1M47,28h1M51,28h1M52,28h1M53,28h1M54,28h1M55,28h1M56,28h1M1,29h1M4,29h1M8,29h1M10,29h1M11,29h1M12,29h1M13,29h1M14,29h1M15,29h1M19,29h1M20,29h1M21,29h1M22,29h1M23,29h1M27,29h1M28,29h1M32,29h1M33,29h1M37,29h1M38,29h1M39,29h1M40,29h1M42,29h1M43,29h1M45,29h1M46,29h1M48,29h1M49,29h1M52,29h1M56,29h1M57,29h1M58,29h1M60,29h1M0,30h1M2,30h1M4,30h1M6,30h1M8,30h1M9,30h1M12,30h1M15,30h1M16,30h1M18,30h1M19,30h1M21,30h1M22,30h1M25,30h1M27,30h1M28,30h1M30,30h1M32,30h1M33,30h1M34,30h1M35,30h1M36,30h1M37,30h1M43,30h1M45,30h1M46,30h1M47,30h1M48,30h1M52,30h1M54,30h1M56,30h1M0,31h1M1,31h1M3,31h1M4,31h1M8,31h1M11,31h1M14,31h1M17,31h1M21,31h1M28,31h1M32,31h1M33,31h1M36,31h1M37,31h1M38,31h1M39,31h1M40,31h1M44,31h1M45,31h1M47,31h1M48,31h1M49,31h1M50,31h1M52,31h1M56,31h1M57,31h1M60,31h1M2,32h1M4,32h1M5,32h1M6,32h1M7,32h1M8,32h1M9,32h1M11,32h1M12,32h1M13,32h1M15,32h1M17,32h1M20,32h1M22,32h1M23,32h1M24,32h1M25,32h1M27,32h1M28,32h1M29,32h1M30,32h1M31,32h1M32,32h1M33,32h1M34,32h1M37,32h1M47,32h1M50,32h1M52,32h1M53,32h1M54,32h1M55,32h1M56,32h1M57,32h1M58,32h1M59,32h1M0,33h1M1,33h1M2,33h1M8,33h1M9,33h1M11,33h1M12,33h1M13,33h1M15,33h1M16,33h1M18,33h1M19,33h1M20,33h1M22,33h1M24,33h1M25,33h1M27,33h1M29,33h1M30,33h1M33,33h1M35,33h1M37,33h1M39,33h1M45,33h1M50,33h1M51,33h1M52,33h1M55,33h1M56,33h1M5,34h1M6,34h1M8,34h1M11,34h1M17,34h1M18,34h1M23,34h1M24,34h1M25,34h1M26,34h1M31,34h1M34,34h1M37,34h1M38,34h1M39,34h1M44,34h1M45,34h1M52,34h1M58,34h1M60,34h1M1,35h1M3,35h1M4,35h1M7,35h1M10,35h1M11,35h1M13,35h1M14,35h1M20,35h1M22,35h1M23,35h1M25,35h1M26,35h1M27,35h1M32,35h1M33,35h1M34,35h1M35,35h1M37,35h1M39,35h1M40,35h1M41,35h1M43,35h1M46,35h1M47,35h1M48,35h1M51,35h1M53,35h1M1,36h1M2,36h1M3,36h1M4,36h1M5,36h1M6,36h1M8,36h1M9,36h1M11,36h1M12,36h1M13,36h1M15,36h1M16,36h1M20,36h1M21,36h1M23,36h1M27,36h1M28,36h1M29,36h1M32,36h1M33,36h1M34,36h1M36,36h1M38,36h1M39,36h1M41,36h1M45,36h1M48,36h1M50,36h1M51,36h1M53,36h1M54,36h1M55,36h1M56,36h1M59,36h1M60,36h1M2,37h1M3,37h1M9,37h1M10,37h1M13,37h1M16,37h1M17,37h1M19,37h1M20,37h1M23,37h1M24,37h1M25,37h1M26,37h1M31,37h1M32,37h1M33,37h1M37,37h1M39,37h1M44,37h1M46,37h1M47,37h1M48,37h1M51,37h1M52,37h1M53,37h1M54,37h1M55,37h1M59,37h1M60,37h1M2,38h1M3,38h1M4,38h1M6,38h1M7,38h1M8,38h1M9,38h1M13,38h1M18,38h1M20,38h1M25,38h1M28,38h1M29,38h1M32,38h1M33,38h1M34,38h1M38,38h1M40,38h1M43,38h1M44,38h1M48,38h1M52,38h1M53,38h1M54,38h1M55,38h1M56,38h1M57,38h1M58,38h1M59,38h1M4,39h1M10,39h1M16,39h1M17,39h1M20,39h1M21,39h1M22,39h1M23,39h1M24,39h1M25,39h1M28,39h1M32,39h1M33,39h1M35,39h1M36,39h1M37,39h1M40,39h1M41,39h1M42,39h1M47,39h1M49,39h1M51,39h1M56,39h1M59,39h1M60,39h1M0,40h1M1,40h1M2,40h1M3,40h1M6,40h1M7,40h1M11,40h1M13,40h1M14,40h1M16,40h1M17,40h1M18,40h1M19,40h1M20,40h1M21,40h1M26,40h1M28,40h1M29,40h1M30,40h1M34,40h1M39,40h1M40,40h1M42,40h1M46,40h1M47,40h1M48,40h1M55,40h1M56,40h1M59,40h1M0,41h1M1,41h1M3,41h1M5,41h1M7,41h1M8,41h1M9,41h1M11,41h1M15,41h1M16,41h1M19,41h1M20,41h1M29,41h1M33,41h1M36,41h1M38,41h1M43,41h1M44,41h1M45,41h1M48,41h1M49,41h1M50,41h1M51,41h1M52,41h1M53,41h1M55,41h1M56,41h1M57,41h1M58,41h1M60,41h1M0,42h1M1,42h1M3,42h1M4,42h1M5,42h1M6,42h1M8,42h1M9,42h1M10,42h1M11,42h1M12,42h1M16,42h1M17,42h1M18,42h1M19,42h1M20,42h1M21,42h1M22,42h1M23,42h1M24,42h1M27,42h1M29,42h1M30,42h1M31,42h1M33,42h1M34,42h1M35,42h1M36,42h1M38,42h1M39,42h1M41,42h1M43,42h1M45,42h1M46,42h1M47,42h1M48,42h1M49,42h1M51,42h1M56,42h1M58,42h1M60,42h1M0,43h1M5,43h1M8,43h1M11,43h1M13,43h1M14,43h1M17,43h1M21,43h1M22,43h1M23,43h1M25,43h1M27,43h1M28,43h1M29,43h1M30,43h1M31,43h1M32,43h1M38,43h1M41,43h1M47,43h1M48,43h1M50,43h1M55,43h1M56,43h1M57,43h1M60,43h1M0,44h1M1,44h1M2,44h1M3,44h1M4,44h1M6,44h1M7,44h1M8,44h1M10,44h1M11,44h1M12,44h1M14,44h1M17,44h1M19,44h1M22,44h1M23,44h1M25,44h1M26,44h1M30,44h1M31,44h1M33,44h1M34,44h1M35,44h1M40,44h1M41,44h1M43,44h1M45,44h1M47,44h1M48,44h1M49,44h1M50,44h1M52,44h1M53,44h1M55,44h1M57,44h1M58,44h1M59,44h1M2,45h1M4,45h1M10,45h1M11,45h1M12,45h1M13,45h1M14,45h1M15,45h1M17,45h1M20,45h1M23,45h1M25,45h1M26,45h1M27,45h1M29,45h1M30,45h1M31,45h1M33,45h1M35,45h1M40,45h1M42,45h1M43,45h1M45,45h1M46,45h1M51,45h1M53,45h1M55,45h1M56,45h1M59,45h1M1,46h1M2,46h1M6,46h1M7,46h1M8,46h1M10,46h1M11,46h1M12,46h1M13,46h1M14,46h1M16,46h1M17,46h1M21,46h1M23,46h1M24,46h1M25,46h1M26,46h1M28,46h1M30,46h1M31,46h1M32,46h1M33,46h1M37,46h1M38,46h1M39,46h1M43,46h1M44,46h1M45,46h1M46,46h1M47,46h1M50,46h1M53,46h1M56,46h1M58,46h1M60,46h1M0,47h1M1,47h1M3,47h1M4,47h1M5,47h1M13,47h1M14,47h1M16,47h1M17,47h1M18,47h1M21,47h1M23,47h1M26,47h1M28,47h1M30,47h1M32,47h1M34,47h1M35,47h1M39,47h1M41,47h1M43,47h1M44,47h1M45,47h1M49,47h1M53,47h1M54,47h1M58,47h1M60,47h1M0,48h1M4,48h1M6,48h1M12,48h1M13,48h1M14,48h1M15,48h1M16,48h1M18,48h1M19,48h1M21,48h1M22,48h1M27,48h1M29,48h1M34,48h1M38,48h1M39,48h1M40,48h1M42,48h1M44,48h1M45,48h1M46,48h1M47,48h1M49,48h1M53,48h1M55,48h1M56,48h1M59,48h1M60,48h1M0,49h1M1,49h1M3,49h1M4,49h1M5,49h1M7,49h1M8,49h1M9,49h1M11,49h1M12,49h1M13,49h1M14,49h1M15,49h1M16,49h1M17,49h1M18,49h1M19,49h1M21,49h1M22,49h1M24,49h1M27,49h1M28,49h1M29,49h1M31,49h1M32,49h1M34,49h1M35,49h1M37,49h1M39,49h1M40,49h1M42,49h1M44,49h1M47,49h1M48,49h1M49,49h1M50,49h1M51,49h1M52,49h1M56,49h1M57,49h1M2,50h1M3,50h1M4,50h1M5,50h1M6,50h1M8,50h1M10,50h1M11,50h1M12,50h1M18,50h1M21,50h1M22,50h1M24,50h1M27,50h1M28,50h1M29,50h1M31,50h1M33,50h1M35,50h1M37,50h1M40,50h1M42,50h1M43,50h1M47,50h1M50,50h1M52,50h1M53,50h1M56,50h1M57,50h1M58,50h1M60,50h1M0,51h1M1,51h1M2,51h1M4,51h1M13,51h1M15,51h1M18,51h1M19,51h1M21,51h1M22,51h1M24,51h1M26,51h1M28,51h1M31,51h1M32,51h1M35,51h1M36,51h1M39,51h1M40,51h1M41,51h1M42,51h1M48,51h1M49,51h1M51,51h1M54,51h1M55,51h1M57,51h1M0,52h1M1,52h1M2,52h1M3,52h1M6,52h1M8,52h1M11,52h1M12,52h1M15,52h1M17,52h1M18,52h1M20,52h1M23,52h1M24,52h1M25,52h1M28,52h1M29,52h1M30,52h1M31,52h1M32,52h1M35,52h1M37,52h1M40,52h1M41,52h1M43,52h1M44,52h1M46,52h1M47,52h1M52,52h1M53,52h1M54,52h1M55,52h1M56,52h1M58,52h1M8,53h1M9,53h1M10,53h1M12,53h1M13,53h1M15,53h1M17,53h1M18,53h1M22,53h1M23,53h1M24,53h1M25,53h1M26,53h1M28,53h1M32,53h1M33,53h1M36,53h1M38,53h1M39,53h1M41,53h1M42,53h1M43,53h1M45,53h1M48,53h1M49,53h1M50,53h1M51,53h1M52,53h1M56,53h1M57,53h1M58,53h1M60,53h1M0,54h1M1,54h1M2,54h1M3,54h1M4,54h1M5,54h1M6,54h1M8,54h1M13,54h1M14,54h1M15,54h1M16,54h1M17,54h1M18,54h1M19,54h1M21,54h1M25,54h1M27,54h1M28,54h1M30,54h1M32,54h1M33,54h1M34,54h1M35,54h1M36,54h1M37,54h1M39,54h1M42,54h1M43,54h1M44,54h1M45,54h1M46,54h1M47,54h1M48,54h1M49,54h1M51,54h1M52,54h1M54,54h1M56,54h1M58,54h1M59,54h1M60,54h1M0,55h1M6,55h1M8,55h1M11,55h1M13,55h1M16,55h1M17,55h1M18,55h1M19,55h1M20,55h1M23,55h1M27,55h1M28,55h1M32,55h1M33,55h1M35,55h1M37,55h1M38,55h1M45,55h1M47,55h1M48,55h1M49,55h1M50,55h1M51,55h1M52,55h1M56,55h1M58,55h1M59,55h1M0,56h1M2,56h1M3,56h1M4,56h1M6,56h1M9,56h1M11,56h1M14,56h1M18,56h1M19,56h1M20,56h1M22,56h1M24,56h1M26,56h1M27,56h1M28,56h1M29,56h1M30,56h1M31,56h1M32,56h1M33,56h1M35,56h1M36,56h1M37,56h1M38,56h1M39,56h1M41,56h1M42,56h1M45,56h1M46,56h1M49,56h1M50,56h1M52,56h1M53,56h1M54,56h1M55,56h1M56,56h1M59,56h1M0,57h1M2,57h1M3,57h1M4,57h1M6,57h1M8,57h1M10,57h1M11,57h1M15,57h1M18,57h1M20,57h1M21,57h1M22,57h1M25,57h1M27,57h1M28,57h1M29,57h1M32,57h1M33,57h1M37,57h1M38,57h1M39,57h1M40,57h1M41,57h1M42,57h1M44,57h1M47,57h1M48,57h1M49,57h1M50,57h1M51,57h1M53,57h1M54,57h1M55,57h1M57,57h1M60,57h1M0,58h1M2,58h1M3,58h1M4,58h1M6,58h1M8,58h1M12,58h1M13,58h1M14,58h1M17,58h1M18,58h1M21,58h1M22,58h1M23,58h1M25,58h1M27,58h1M31,58h1M34,58h1M36,58h1M37,58h1M38,58h1M39,58h1M40,58h1M41,58h1M45,58h1M47,58h1M50,58h1M54,58h1M56,58h1M57,58h1M58,58h1M59,58h1M0,59h1M6,59h1M12,59h1M13,59h1M15,59h1M16,59h1M19,59h1M20,59h1M22,59h1M25,59h1M26,59h1M27,59h1M28,59h1M29,59h1M32,59h1M33,59h1M34,59h1M35,59h1M36,59h1M43,59h1M44,59h1M46,59h1M48,59h1M52,59h1M55,59h1M56,59h1M57,59h1M58,59h1M60,59h1M0,60h1M1,60h1M2,60h1M3,60h1M4,60h1M5,60h1M6,60h1M8,60h1M11,60h1M12,60h1M15,60h1M16,60h1M17,60h1M19,60h1M24,60h1M25,60h1M26,60h1M29,60h1M33,60h1M34,60h1M38,60h1M39,60h1M40,60h1M41,60h1M44,60h1M46,60h1M47,60h1M50,60h1M55,60h1M58,60h1M60,60h1"/>
	</g>
</svg>
