<!-- Created with qrencode 4.1.1 (https://fukuchi.org/works/qrencode/index.html) -->
<svg width="7.30cm" height="7.30cm" viewBox="0 0 69 69" preserveAspectRatio="none" version="1.1" xmlns="http://www.w3.org/2000/svg">
	<g id="QRcode">
		<rect x="0" y="0" width="69" height="69" fill="#ffffff"/>
		<path style="stroke:#000000" transform="translate(0,0.5)" d="M0,0h1M1,0h1M2,0h1M3,0h1M4,0h1M5,0h1M6,0h1M8,0h1M12,0h1M13,0h1M14,0h1M16,0h1M17,0h1M18,0h1M20,0h1M23,0h1M27,0h1M28,0h1M30,0h1M31,0h1M32,0h1M33,0h1M34,0h1M39,0h1M40,0h1M41,0h1M43,0h1M47,0h1M49,0h1M53,0h1M55,0h1M56,0h1M58,0h1M59,0h1M60,0h1M62,0h1M63,0h1M64,0h1M65,0h1M66,0h1M67,0h1M68,0h1M0,1h1M6,1h1M9,1h1M11,1h1M12,1h1M15,1h1M18,1h1M19,1h1M20,1h1M24,1h1M25,1h1M26,1h1M28,1h1M29,1h1M32,1h1M33,1h1M39,1h1M41,1h1M42,1h1M43,1h1M47,1h1M48,1h1M50,1h1M54,1h1M62,1h1M68,1h1M0,2h1M2,2h1M3,2h1M4,2h1M6,2h1M8,2h1M12,2h1M18,2h1M24,2h1M25,2h1M27,2h1M29,2h1M32,2h1M33,2h1M34,2h1M38,2h1M40,2h1M41,2h1M42,2h1M43,2h1M45,2h1M48,2h1M50,2h1M51,2h1M52,2h1M54,2h1M56,2h1M58,2h1M62,2h1M64,2h1M65,2h1M66,2h1M68,2h1M0,3h1M2,3h1M3,3h1M4,3h1M6,3h1M9,3h1M10,3h1M11,3h1M13,3h1M14,3h1M15,3h1M16,3h1M18,3h1M20,3h1M22,3h1M25,3h1M26,3h1M29,3h1M30,3h1M33,3h1M35,3h1M37,3h1M38,3h1M39,3h1M42,3h1M44,3h1M47,3h1M48,3h1M50,3h1M54,3h1M55,3h1M57,3h1M60,3h1M62,3h1M64,3h1M65,3h1M66,3h1M68,3h1M0,4h1M2,4h1M3,4h1M4,4h1M6,4h1M9,4h1M10,4h1M11,4h1M13,4h1M14,4h1M16,4h1M18,4h1M19,4h1M20,4h1M22,4h1M25,4h1M26,4h1M29,4h1M32,4h1M33,4h1M34,4h1M35,4h1M36,4h1M38,4h1M39,4h1M40,4h1M46,4h1M47,4h1M50,4h1M51,4h1M53,4h1M54,4h1M55,4h1M58,4h1M60,4h1M62,4h1M64,4h1M65,4h1M66,4h1M68,4h1M0,5h1M6,5h1M8,5h1M9,5h1M12,5h1M14,5h1M16,5h1M17,5h1M18,5h1M21,5h1M24,5h1M28,5h1M29,5h1M31,5h1M32,5h1M36,5h1M37,5h1M39,5h1M41,5h1M46,5h1M47,5h1M49,5h1M51,5h1M53,5h1M55,5h1M57,5h1M58,5h1M62,5h1M68,5h1M0,6h1M1,6h1M2,6h1M3,6h1M4,6h1M5,6h1M6,6h1M8,6h1M10,6h1M12,6h1M14,6h1M16,6h1M18,6h1M20,6h1M22,6h1M24,6h1M26,6h1M28,6h1M30,6h1M32,6h1M34,6h1M36,6h1M38,6h1M40,6h1M42,6h1M44,6h1M46,6h1M48,6h1M50,6h1M52,6h1M54,6h1M56,6h1M58,6h1M60,6h1M62,6h1M63,6h1M64,6h1M65,6h1M66,6h1M67,6h1M68,6h1M9,7h1M11,7h1M12,7h1M13,7h1M14,7h1M15,7h1M18,7h1M20,7h1M21,7h1M22,7h1M24,7h1M25,7h1M27,7h1M29,7h1M32,7h1M36,7h1M37,7h1M39,7h1M40,7h1M41,7h1M42,7h1M43,7h1M45,7h1M47,7h1M49,7h1M53,7h1M55,7h1M56,7h1M59,7h1M0,8h1M2,8h1M6,8h1M7,8h1M10,8h1M11,8h1M12,8h1M15,8h1M18,8h1M19,8h1M22,8h1M23,8h1M25,8h1M26,8h1M27,8h1M28,8h1M29,8h1M30,8h1M32,8h1M33,8h1M34,8h1M35,8h1M36,8h1M37,8h1M40,8h1M41,8h1M45,8h1M49,8h1M50,8h1M53,8h1M55,8h1M57,8h1M59,8h1M60,8h1M63,8h1M66,8h1M68,8h1M2,9h1M3,9h1M4,9h1M7,9h1M9,9h1M11,9h1M13,9h1M15,9h1M16,9h1M17,9h1M19,9h1M21,9h1M25,9h1M27,9h1M28,9h1M30,9h1M31,9h1M32,9h1M33,9h1M37,9h1M38,9h1M40,9h1M41,9h1M42,9h1M44,9h1M45,9h1M46,9h1M47,9h1M48,9h1M50,9h1M52,9h1M55,9h1M56,9h1M57,9h1M58,9h1M61,9h1M62,9h1M64,9h1M65,9h1M3,10h1M5,10h1M6,10h1M7,10h1M8,10h1M11,10h1M13,10h1M16,10h1M20,10h1M27,10h1M30,10h1M31,10h1M36,10h1M37,10h1M40,10h1M41,10h1M42,10h1M44,10h1M46,10h1M47,10h1M48,10h1M50,10h1M53,10h1M54,10h1M55,10h1M56,10h1M57,10h1M61,10h1M64,10h1M68,10h1M0,11h1M4,11h1M9,11h1M11,11h1M12,11h1M15,11h1M17,11h1M18,11h1M21,11h1M26,11h1M27,11h1M29,11h1M30,11h1M31,11h1M32,11h1M34,11h1M35,11h1M36,11h1M37,11h1M40,11h1M43,11h1M45,11h1M49,11h1M51,11h1M52,11h1M53,11h1M55,11h1M61,11h1M64,11h1M68,11h1M0,12h1M2,12h1M4,12h1M5,12h1M6,12h1M7,12h1M8,12h1M9,12h1M12,12h1M14,12h1M15,12h1M16,12h1M17,12h1M18,12h1M19,12h1M20,12h1M21,12h1M22,12h1M24,12h1M25,12h1M27,12h1M30,12h1M31,12h1M33,12h1M36,12h1M37,12h1M39,12h1M41,12h1M42,12h1M45,12h1M46,12h1M48,12h1M49,12h1M54,12h1M55,12h1M56,12h1M58,12h1M59,12h1M60,12h1M61,12h1M63,12h1M0,13h1M2,13h1M3,13h1M9,13h1M10,13h1M16,13h1M17,13h1M19,13h1M20,13h1M24,13h1M25,13h1M27,13h1M28,13h1M29,13h1M31,13h1M33,13h1M35,13h1M38,13h1M39,13h1M40,13h1M43,13h1M44,13h1M46,13h1M47,13h1M48,13h1M49,13h1M50,13h1M52,13h1M59,13h1M60,13h1M61,13h1M63,13h1M64,13h1M65,13h1M68,13h1M0,14h1M1,14h1M3,14h1M6,14h1M9,14h1M10,14h1M11,14h1M12,14h1M14,14h1M24,14h1M25,14h1M26,14h1M28,14h1M29,14h1M30,14h1M38,14h1M40,14h1M41,14h1M42,14h1M43,14h1M44,14h1M46,14h1M48,14h1M50,14h1M51,14h1M52,14h1M53,14h1M55,14h1M56,14h1M58,14h1M59,14h1M61,14h1M62,14h1M64,14h1M65,14h1M67,14h1M68,14h1M1,15h1M2,15h1M4,15h1M7,15h1M8,15h1M13,15h1M14,15h1M15,15h1M16,15h1M17,15h1M23,15h1M28,15h1M30,15h1M36,15h1M37,15h1M38,15h1M40,15h1M44,15h1M45,15h1M49,15h1M57,15h1M59,15h1M62,15h1M63,15h1M65,15h1M66,15h1M67,15h1M68,15h1M1,16h1M3,16h1M6,16h1M11,16h1M13,16h1M14,16h1M15,16h1M16,16h1M17,16h1M19,16h1M21,16h1M22,16h1M23,16h1M28,16h1M29,16h1M30,16h1M36,16h1M37,16h1M41,16h1M44,16h1M46,16h1M49,16h1M50,16h1M52,16h1M53,16h1M60,16h1M61,16h1M63,16h1M65,16h1M68,16h1M7,17h1M8,17h1M11,17h1M12,17h1M13,17h1M14,17h1M15,17h1M16,17h1M17,17h1M21,17h1M22,17h1M23,17h1M24,17h1M27,17h1M28,17h1M31,17h1M33,17h1M35,17h1M37,17h1M38,17h1M44,17h1M46,17h1M48,17h1M49,17h1M50,17h1M51,17h1M53,17h1M54,17h1M56,17h1M57,17h1M59,17h1M61,17h1M64,17h1M66,17h1M68,17h1M1,18h1M2,18h1M3,18h1M5,18h1M6,18h1M7,18h1M8,18h1M9,18h1M15,18h1M17,18h1M19,18h1M21,18h1M27,18h1M30,18h1M33,18h1M35,18h1M37,18h1M38,18h1M40,18h1M41,18h1M42,18h1M43,18h1M44,18h1M46,18h1M48,18h1M49,18h1M50,18h1M52,18h1M57,18h1M58,18h1M59,18h1M61,18h1M64,18h1M65,18h1M1,19h1M2,19h1M4,19h1M5,19h1M8,19h1M16,19h1M18,19h1M19,19h1M21,19h1M22,19h1M24,19h1M25,19h1M27,19h1M30,19h1M32,19h1M33,19h1M34,19h1M35,19h1M39,19h1M44,19h1M49,19h1M52,19h1M55,19h1M57,19h1M59,19h1M64,19h1M65,19h1M66,19h1M68,19h1M3,20h1M6,20h1M10,20h1M11,20h1M13,20h1M15,20h1M16,20h1M17,20h1M18,20h1M22,20h1M23,20h1M24,20h1M25,20h1M27,20h1M28,20h1M29,20h1M31,20h1M33,20h1M34,20h1M36,20h1M39,20h1M40,20h1M41,20h1M43,20h1M44,20h1M45,20h1M48,20h1M50,20h1M51,20h1M52,20h1M54,20h1M60,20h1M63,20h1M64,20h1M66,20h1M68,20h1M2,21h1M4,21h1M5,21h1M8,21h1M10,21h1M13,21h1M15,21h1M16,21h1M18,21h1M19,21h1M20,21h1M21,21h1M23,21h1M24,21h1M28,21h1M29,21h1M31,21h1M33,21h1M35,21h1M38,21h1M39,21h1M43,21h1M44,21h1M45,21h1M46,21h1M47,21h1M50,21h1M51,21h1M56,21h1M59,21h1M61,21h1M63,21h1M64,21h1M65,21h1M2,22h1M4,22h1M5,22h1M6,22h1M7,22h1M9,22h1M12,22h1M14,22h1M16,22h1M19,22h1M26,22h1M27,22h1M28,22h1M29,22h1M30,22h1M32,22h1M34,22h1M36,22h1M37,22h1M39,22h1M40,22h1M41,22h1M42,22h1M44,22h1M45,22h1M48,22h1M50,22h1M52,22h1M54,22h1M56,22h1M57,22h1M59,22h1M64,22h1M1,23h1M3,23h1M4,23h1M7,23h1M8,23h1M9,23h1M13,23h1M20,23h1M23,23h1M25,23h1M27,23h1M29,23h1M30,23h1M31,23h1M32,23h1M33,23h1M37,23h1M40,23h1M41,23h1M45,23h1M49,23h1M51,23h1M52,23h1M55,23h1M59,23h1M61,23h1M64,23h1M65,23h1M66,23h1M0,24h1M1,24h1M2,24h1M3,24h1M4,24h1M5,24h1M6,24h1M7,24h1M8,24h1M9,24h1M11,24h1M13,24h1M14,24h1M17,24h1M18,24h1M20,24h1M22,24h1M25,24h1M26,24h1M28,24h1M29,24h1M33,24h1M34,24h1M36,24h1M37,24h1M39,24h1M41,24h1M42,24h1M44,24h1M47,24h1M48,24h1M49,24h1M52,24h1M53,24h1M54,24h1M56,24h1M57,24h1M60,24h1M61,24h1M64,24h1M68,24h1M5,25h1M7,25h1M8,25h1M9,25h1M10,25h1M15,25h1M17,25h1M19,25h1M22,25h1M25,25h1M28,25h1M30,25h1M33,25h1M35,25h1M38,25h1M39,25h1M40,25h1M42,25h1M45,25h1M48,25h1M49,25h1M50,25h1M52,25h1M54,25h1M55,25h1M59,25h1M61,25h1M62,25h1M63,25h1M65,25h1M67,25h1M68,25h1M0,26h1M4,26h1M5,26h1M6,26h1M7,26h1M10,26h1M12,26h1M16,26h1M17,26h1M18,26h1M20,26h1M21,26h1M24,26h1M25,26h1M26,26h1M27,26h1M28,26h1M29,26h1M30,26h1M32,26h1M34,26h1M35,26h1M36,26h1M38,26h1M40,26h1M42,26h1M43,26h1M44,26h1M45,26h1M46,26h1M47,26h1M48,26h1M50,26h1M52,26h1M53,26h1M56,26h1M57,26h1M58,26h1M59,26h1M62,26h1M64,26h1M65,26h1M66,26h1M67,26h1M0,27h1M1,27h1M2,27h1M3,27h1M5,27h1M7,27h1M9,27h1M11,27h1M12,27h1M13,27h1M16,27h1M17,27h1M19,27h1M24,27h1M25,27h1M27,27h1M31,27h1M32,27h1M36,27h1M37,27h1M39,27h1M43,27h1M45,27h1M47,27h1M51,27h1M59,27h1M61,27h1M63,27h1M65,27h1M66,27h1M67,27h1M68,27h1M3,28h1M6,28h1M7,28h1M10,28h1M11,28h1M14,28h1M15,28h1M16,28h1M19,28h1M20,28h1M21,28h1M23,28h1M24,28h1M28,28h1M29,28h1M31,28h1M32,28h1M33,28h1M34,28h1M36,28h1M37,28h1M39,28h1M41,28h1M42,28h1M43,28h1M44,28h1M45,28h1M46,28h1M47,28h1M48,28h1M50,28h1M51,28h1M52,28h1M53,28h1M54,28h1M55,28h1M56,28h1M57,28h1M61,28h1M63,28h1M64,28h1M66,28h1M67,28h1M68,28h1M1,29h1M2,29h1M5,29h1M7,29h1M10,29h1M12,29h1M13,29h1M14,29h1M18,29h1M20,29h1M22,29h1M24,29h1M25,29h1M30,29h1M31,29h1M33,29h1M35,29h1M38,29h1M42,29h1M43,29h1M45,29h1M46,29h1M48,29h1M54,29h1M59,29h1M62,29h1M64,29h1M65,29h1M68,29h1M1,30h1M5,30h1M6,30h1M7,30h1M10,30h1M11,30h1M13,30h1M17,30h1M18,30h1M19,30h1M20,30h1M21,30h1M22,30h1M24,30h1M25,30h1M27,30h1M29,30h1M30,30h1M33,30h1M35,30h1M36,30h1M38,30h1M40,30h1M41,30h1M43,30h1M44,30h1M45,30h1M46,30h1M48,30h1M50,30h1M52,30h1M53,30h1M55,30h1M56,30h1M57,30h1M58,30h1M59,30h1M62,30h1M64,30h1M65,30h1M66,30h1M68,30h1M0,31h1M2,31h1M3,31h1M4,31h1M5,31h1M9,31h1M10,31h1M11,31h1M13,31h1M14,31h1M15,31h1M16,31h1M17,31h1M21,31h1M22,31h1M23,31h1M24,31h1M26,31h1M27,31h1M29,31h1M31,31h1M32,31h1M33,31h1M36,31h1M37,31h1M39,31h1M44,31h1M45,31h1M48,31h1M49,31h1M53,31h1M57,31h1M59,31h1M60,31h1M61,31h1M65,31h1M67,31h1M0,32h1M1,32h1M3,32h1M4,32h1M5,32h1M6,32h1M7,32h1M8,32h1M9,32h1M10,32h1M11,32h1M12,32h1M13,32h1M14,32h1M18,32h1M19,32h1M24,32h1M26,32h1M28,32h1M29,32h1M30,32h1M31,32h1M32,32h1M33,32h1M34,32h1M35,32h1M36,32h1M38,32h1M41,32h1M43,32h1M44,32h1M45,32h1M47,32h1M48,32h1M49,32h1M52,32h1M57,32h1M59,32h1M60,32h1M61,32h1M62,32h1M63,32h1M64,32h1M66,32h1M67,32h1M68,32h1M0,33h1M1,33h1M2,33h1M3,33h1M4,33h1M8,33h1M12,33h1M16,33h1M17,33h1M19,33h1M21,33h1M22,33h1M24,33h1M25,33h1M26,33h1M29,33h1M32,33h1M36,33h1M40,33h1M41,33h1M42,33h1M43,33h1M44,33h1M45,33h1M46,33h1M49,33h1M52,33h1M56,33h1M60,33h1M64,33h1M65,33h1M67,33h1M68,33h1M1,34h1M2,34h1M3,34h1M4,34h1M6,34h1M8,34h1M9,34h1M11,34h1M13,34h1M14,34h1M15,34h1M16,34h1M18,34h1M19,34h1M21,34h1M22,34h1M24,34h1M25,34h1M28,34h1M30,34h1M32,34h1M34,34h1M36,34h1M37,34h1M40,34h1M44,34h1M46,34h1M48,34h1M49,34h1M52,34h1M56,34h1M58,34h1M60,34h1M62,34h1M64,34h1M67,34h1M68,34h1M2,35h1M4,35h1M8,35h1M11,35h1M16,35h1M17,35h1M19,35h1M20,35h1M21,35h1M22,35h1M24,35h1M25,35h1M26,35h1M29,35h1M30,35h1M32,35h1M36,35h1M39,35h1M41,35h1M44,35h1M47,35h1M49,35h1M52,35h1M53,35h1M55,35h1M59,35h1M60,35h1M64,35h1M67,35h1M0,36h1M1,36h1M3,36h1M4,36h1M5,36h1M6,36h1M7,36h1M8,36h1M9,36h1M11,36h1M14,36h1M15,36h1M17,36h1M19,36h1M26,36h1M27,36h1M29,36h1M30,36h1M32,36h1M33,36h1M34,36h1M35,36h1M36,36h1M40,36h1M41,36h1M46,36h1M47,36h1M48,36h1M49,36h1M50,36h1M53,36h1M54,36h1M56,36h1M59,36h1M60,36h1M61,36h1M62,36h1M63,36h1M64,36h1M68,36h1M2,37h1M3,37h1M4,37h1M7,37h1M11,37h1M17,37h1M20,37h1M21,37h1M24,37h1M25,37h1M26,37h1M29,37h1M30,37h1M33,37h1M35,37h1M38,37h1M41,37h1M44,37h1M47,37h1M49,37h1M50,37h1M53,37h1M57,37h1M58,37h1M59,37h1M60,37h1M62,37h1M63,37h1M67,37h1M1,38h1M2,38h1M3,38h1M6,38h1M8,38h1M9,38h1M10,38h1M11,38h1M13,38h1M17,38h1M21,38h1M22,38h1M23,38h1M25,38h1M28,38h1M29,38h1M30,38h1M31,38h1M32,38h1M34,38h1M36,38h1M40,38h1M42,38h1M44,38h1M46,38h1M47,38h1M48,38h1M50,38h1M52,38h1M54,38h1M56,38h1M57,38h1M60,38h1M64,38h1M65,38h1M67,38h1M0,39h1M1,39h1M8,39h1M9,39h1M10,39h1M16,39h1M21,39h1M23,39h1M26,39h1M31,39h1M32,39h1M33,39h1M34,39h1M36,39h1M37,39h1M41,39h1M43,39h1M44,39h1M45,39h1M46,39h1M47,39h1M49,39h1M51,39h1M52,39h1M53,39h1M56,39h1M57,39h1M59,39h1M60,39h1M61,39h1M62,39h1M65,39h1M66,39h1M68,39h1M1,40h1M2,40h1M3,40h1M6,40h1M7,40h1M8,40h1M9,40h1M10,40h1M11,40h1M14,40h1M15,40h1M16,40h1M17,40h1M21,40h1M23,40h1M24,40h1M29,40h1M31,40h1M32,40h1M34,40h1M35,40h1M37,40h1M40,40h1M41,40h1M43,40h1M44,40h1M45,40h1M47,40h1M48,40h1M49,40h1M52,40h1M53,40h1M55,40h1M56,40h1M57,40h1M60,40h1M62,40h1M65,40h1M68,40h1M2,41h1M4,41h1M7,41h1M10,41h1M13,41h1M16,41h1M17,41h1M18,41h1M19,41h1M20,41h1M23,41h1M24,41h1M27,41h1M28,41h1M30,41h1M32,41h1M35,41h1M39,41h1M42,41h1M43,41h1M44,41h1M48,41h1M49,41h1M50,41h1M51,41h1M53,41h1M54,41h1M55,41h1M56,41h1M57,41h1M58,41h1M59,41h1M60,41h1M61,41h1M62,41h1M64,41h1M67,41h1M2,42h1M6,42h1M7,42h1M11,42h1M12,42h1M13,42h1M14,42h1M16,42h1M18,42h1M22,42h1M25,42h1M26,42h1M27,42h1M30,42h1M32,42h1M34,42h1M35,42h1M36,42h1M38,42h1M40,42h1M44,42h1M45,42h1M48,42h1M49,42h1M51,42h1M52,42h1M53,42h1M56,42h1M58,42h1M59,42h1M61,42h1M66,42h1M67,42h1M68,42h1M0,43h1M3,43h1M5,43h1M7,43h1M8,43h1M9,43h1M13,43h1M14,43h1M15,43h1M18,43h1M19,43h1M31,43h1M32,43h1M34,43h1M35,43h1M36,43h1M39,43h1M43,43h1M44,43h1M45,43h1M47,43h1M49,43h1M51,43h1M55,43h1M56,43h1M57,43h1M59,43h1M62,43h1M68,43h1M1,44h1M5,44h1M6,44h1M7,44h1M8,44h1M9,44h1M10,44h1M11,44h1M13,44h1M19,44h1M21,44h1M22,44h1M28,44h1M30,44h1M31,44h1M35,44h1M39,44h1M42,44h1M45,44h1M48,44h1M49,44h1M50,44h1M51,44h1M52,44h1M53,44h1M54,44h1M55,44h1M57,44h1M59,44h1M60,44h1M64,44h1M65,44h1M66,44h1M68,44h1M1,45h1M3,45h1M4,45h1M5,45h1M7,45h1M8,45h1M12,45h1M13,45h1M16,45h1M18,45h1M19,45h1M20,45h1M21,45h1M22,45h1M23,45h1M28,45h1M29,45h1M30,45h1M35,45h1M36,45h1M38,45h1M40,45h1M44,45h1M45,45h1M46,45h1M49,45h1M50,45h1M51,45h1M54,45h1M55,45h1M56,45h1M59,45h1M60,45h1M62,45h1M63,45h1M65,45h1M67,45h1M68,45h1M0,46h1M1,46h1M2,46h1M4,46h1M5,46h1M6,46h1M7,46h1M8,46h1M12,46h1M15,46h1M17,46h1M18,46h1M19,46h1M23,46h1M24,46h1M26,46h1M27,46h1M30,46h1M31,46h1M36,46h1M37,46h1M40,46h1M42,46h1M44,46h1M46,46h1M48,46h1M49,46h1M50,46h1M51,46h1M52,46h1M53,46h1M55,46h1M56,46h1M59,46h1M61,46h1M62,46h1M63,46h1M65,46h1M68,46h1M2,47h1M3,47h1M4,47h1M5,47h1M7,47h1M8,47h1M9,47h1M13,47h1M14,47h1M15,47h1M16,47h1M21,47h1M22,47h1M26,47h1M27,47h1M30,47h1M34,47h1M37,47h1M39,47h1M42,47h1M43,47h1M45,47h1M49,47h1M52,47h1M53,47h1M57,47h1M58,47h1M63,47h1M65,47h1M66,47h1M67,47h1M68,47h1M0,48h1M1,48h1M2,48h1M3,48h1M5,48h1M6,48h1M11,48h1M12,48h1M14,48h1M20,48h1M23,48h1M24,48h1M25,48h1M27,48h1M29,48h1M30,48h1M31,48h1M35,48h1M37,48h1M39,48h1M42,48h1M44,48h1M46,48h1M47,48h1M49,48h1M53,48h1M54,48h1M55,48h1M56,48h1M57,48h1M61,48h1M62,48h1M64,48h1M65,48h1M66,48h1M67,48h1M68,48h1M1,49h1M2,49h1M3,49h1M4,49h1M9,49h1M11,49h1M12,49h1M14,49h1M15,49h1M20,49h1M22,49h1M25,49h1M28,49h1M29,49h1M35,49h1M37,49h1M38,49h1M40,49h1M41,49h1M42,49h1M45,49h1M48,49h1M52,49h1M53,49h1M54,49h1M57,49h1M58,49h1M59,49h1M62,49h1M65,49h1M67,49h1M0,50h1M1,50h1M2,50h1M4,50h1M6,50h1M9,50h1M10,50h1M11,50h1M18,50h1M19,50h1M22,50h1M23,50h1M24,50h1M25,50h1M27,50h1M28,50h1M29,50h1M30,50h1M31,50h1M32,50h1M34,50h1M35,50h1M36,50h1M37,50h1M38,50h1M40,50h1M41,50h1M42,50h1M44,50h1M45,50h1M46,50h1M48,50h1M50,50h1M52,50h1M53,50h1M54,50h1M55,50h1M56,50h1M57,50h1M58,50h1M59,50h1M63,50h1M65,50h1M68,50h1M0,51h1M1,51h1M4,51h1M7,51h1M8,51h1M12,51h1M14,51h1M16,51h1M18,51h1M21,51h1M22,51h1M24,51h1M25,51h1M26,51h1M28,51h1M31,51h1M32,51h1M34,51h1M36,51h1M40,51h1M41,51h1M45,51h1M47,51h1M51,51h1M52,51h1M53,51h1M55,51h1M57,51h1M58,51h1M62,51h1M63,51h1M66,51h1M68,51h1M2,52h1M6,52h1M9,52h1M11,52h1M15,52h1M16,52h1M17,52h1M20,52h1M21,52h1M26,52h1M28,52h1M31,52h1M32,52h1M33,52h1M35,52h1M38,52h1M39,52h1M41,52h1M42,52h1M43,52h1M44,52h1M46,52h1M47,52h1M51,52h1M53,52h1M55,52h1M56,52h1M58,52h1M60,52h1M62,52h1M64,52h1M68,52h1M0,53h1M3,53h1M5,53h1M8,53h1M9,53h1M11,53h1M14,53h1M15,53h1M16,53h1M17,53h1M18,53h1M21,53h1M23,53h1M25,53h1M27,53h1M28,53h1M33,53h1M35,53h1M42,53h1M44,53h1M48,53h1M50,53h1M51,53h1M52,53h1M54,53h1M55,53h1M57,53h1M59,53h1M60,53h1M62,53h1M63,53h1M64,53h1M65,53h1M67,53h1M1,54h1M2,54h1M3,54h1M4,54h1M6,54h1M8,54h1M9,54h1M15,54h1M16,54h1M17,54h1M20,54h1M21,54h1M22,54h1M23,54h1M25,54h1M26,54h1M27,54h1M30,54h1M31,54h1M34,54h1M36,54h1M38,54h1M39,54h1M40,54h1M43,54h1M44,54h1M45,54h1M46,54h1M48,54h1M49,54h1M51,54h1M52,54h1M54,54h1M55,54h1M56,54h1M57,54h1M58,54h1M59,54h1M60,54h1M61,54h1M63,54h1M64,54h1M67,54h1M68,54h1M0,55h1M3,55h1M7,55h1M9,55h1M10,55h1M11,55h1M15,55h1M16,55h1M20,55h1M21,55h1M23,55h1M24,55h1M26,55h1M27,55h1M29,55h1M30,55h1M31,55h1M32,55h1M34,55h1M35,55h1M36,55h1M37,55h1M41,55h1M43,55h1M45,55h1M47,55h1M48,55h1M49,55h1M51,55h1M53,55h1M54,55h1M55,55h1M56,55h1M61,55h1M65,55h1M66,55h1M68,55h1M2,56h1M4,56h1M5,56h1M6,56h1M9,56h1M12,56h1M13,56h1M14,56h1M18,56h1M21,56h1M23,56h1M26,56h1M27,56h1M29,56h1M31,56h1M32,56h1M35,56h1M37,56h1M38,56h1M41,56h1M42,56h1M44,56h1M45,56h1M47,56h1M50,56h1M52,56h1M53,56h1M60,56h1M61,56h1M68,56h1M1,57h1M2,57h1M4,57h1M5,57h1M8,57h1M11,57h1M15,57h1M21,57h1M22,57h1M24,57h1M25,57h1M28,57h1M30,57h1M31,57h1M35,57h1M38,57h1M40,57h1M41,57h1M44,57h1M47,57h1M48,57h1M51,57h1M53,57h1M54,57h1M56,57h1M58,57h1M59,57h1M60,57h1M64,57h1M65,57h1M0,58h1M2,58h1M4,58h1M5,58h1M6,58h1M8,58h1M9,58h1M14,58h1M15,58h1M16,58h1M17,58h1M18,58h1M19,58h1M20,58h1M22,58h1M24,58h1M26,58h1M29,58h1M30,58h1M31,58h1M33,58h1M34,58h1M35,58h1M36,58h1M41,58h1M42,58h1M44,58h1M47,58h1M48,58h1M49,58h1M50,58h1M52,58h1M53,58h1M54,58h1M56,58h1M59,58h1M61,58h1M62,58h1M63,58h1M64,58h1M66,58h1M68,58h1M0,59h1M11,59h1M12,59h1M14,59h1M16,59h1M18,59h1M20,59h1M21,59h1M22,59h1M26,59h1M30,59h1M31,59h1M32,59h1M35,59h1M37,59h1M39,59h1M41,59h1M45,59h1M49,59h1M56,59h1M57,59h1M59,59h1M63,59h1M65,59h1M67,59h1M0,60h1M3,60h1M4,60h1M6,60h1M8,60h1M11,60h1M13,60h1M14,60h1M16,60h1M17,60h1M20,60h1M21,60h1M24,60h1M25,60h1M26,60h1M27,60h1M28,60h1M31,60h1M32,60h1M33,60h1M34,60h1M35,60h1M36,60h1M37,60h1M39,60h1M41,60h1M42,60h1M44,60h1M48,60h1M51,60h1M52,60h1M53,60h1M55,60h1M58,60h1M59,60h1M60,60h1M61,60h1M62,60h1M63,60h1M64,60h1M68,60h1M8,61h1M9,61h1M11,61h1M14,61h1M15,61h1M16,61h1M17,61h1M19,61h1M20,61h1M21,61h1M24,61h1M26,61h1M27,61h1M29,61h1M30,61h1M31,61h1M32,61h1M36,61h1M37,61h1M38,61h1M40,61h1M41,61h1M42,61h1M47,61h1M48,61h1M49,61h1M60,61h1M64,61h1M65,61h1M68,61h1M0,62h1M1,62h1M2,62h1M3,62h1M4,62h1M5,62h1M6,62h1M8,62h1M9,62h1M10,62h1M11,62h1M12,62h1M13,62h1M14,62h1M15,62h1M17,62h1M18,62h1M19,62h1M21,62h1M24,62h1M25,62h1M26,62h1M28,62h1M29,62h1M30,62h1M31,62h1M32,62h1M34,62h1M36,62h1M37,62h1M38,62h1M40,62h1M41,62h1M45,62h1M46,62h1M48,62h1M50,62h1M52,62h1M53,62h1M54,62h1M55,62h1M56,62h1M57,62h1M58,62h1M60,62h1M62,62h1M64,62h1M0,63h1M6,63h1M11,63h1M13,63h1M14,63h1M15,63h1M16,63h1M17,63h1M22,63h1M23,63h1M27,63h1M30,63h1M31,63h1M32,63h1M36,63h1M37,63h1M41,63h1M45,63h1M47,63h1M49,63h1M50,63h1M51,63h1M53,63h1M57,63h1M59,63h1M60,63h1M64,63h1M65,63h1M68,63h1M0,64h1M2,64h1M3,64h1M4,64h1M6,64h1M11,64h1M17,64h1M19,64h1M20,64h1M24,64h1M26,64h1M27,64h1M28,64h1M29,64h1M30,64h1M31,64h1M32,64h1M33,64h1M34,64h1M35,64h1M36,64h1M40,64h1M42,64h1M45,64h1M48,64h1M49,64h1M53,64h1M54,64h1M56,64h1M58,64h1M59,64h1M60,64h1M61,64h1M62,64h1M63,64h1M64,64h1M66,64h1M68,64h1M0,65h1M2,65h1M3,65h1M4,65h1M6,65h1M9,65h1M10,65h1M11,65h1M12,65h1M14,65h1M18,65h1M20,65h1M22,65h1M23,65h1M24,65h1M27,65h1M28,65h1M34,65h1M35,65h1M37,65h1M40,65h1M41,65h1M44,65h1M46,65h1M47,65h1M48,65h1M49,65h1M50,65h1M53,65h1M56,65h1M59,65h1M62,65h1M63,65h1M64,65h1M0,66h1M2,66h1M3,66h1M4,66h1M6,66h1M8,66h1M12,66h1M13,66h1M15,66h1M19,66h1M20,66h1M26,66h1M27,66h1M32,66h1M33,66h1M36,66h1M37,66h1M38,66h1M40,66h1M41,66h1M42,66h1M46,66h1M48,66h1M49,66h1M50,66h1M52,66h1M53,66h1M55,66h1M56,66h1M61,66h1M64,66h1M67,66h1M68,66h1M0,67h1M6,67h1M9,67h1M10,67h1M15,67h1M16,67h1M17,67h1M18,67h1M19,67h1M20,67h1M22,67h1M24,67h1M26,67h1M27,67h1M30,67h1M32,67h1M36,67h1M37,67h1M39,67h1M40,67h1M43,67h1M45,67h1M47,67h1M48,67h1M49,67h1M50,67h1M51,67h1M53,67h1M55,67h1M56,67h1M57,67h1M60,67h1M61,67h1M62,67h1M64,67h1M66,67h1M68,67h1M0,68h1M1,68h1M2,68h1M3,68h1M4,68h1M5,68h1M6,68h1M8,68h1M9,68h1M10,68h1M17,68h1M18,68h1M19,68h1M20,68h1M21,68h1M24,68h1M25,68h1M26,68h1M27,68h1M28,68h1M31,68h1M37,68h1M38,68h1M41,68h1M44,68h1M45,68h1M47,68h1M50,68h1M51,68h1M53,68h1M55,68h1M56,68h1M60,68h1M64,68h1M65,68h1M67,68h1M68,68h1"/>
	</g>
</svg>
